<svg xmlns="http://www.w3.org/2000/svg" xmlns:xlink="http://www.w3.org/1999/xlink" version="1.0" id="Layer_1" x="0px" y="0px" width="85.9px" height="56.2px" viewBox="0 0 85.9 56.2" enable-background="new 0 0 85.9 56.2" xml:space="preserve">
<path fill="#E1E1E1" d="M71.6,28.1"/>
<path fill="#E1E1E1" d="M43.5,0"/>
<path fill="#E1E1E1" d="M43.5,0"/>
<path fill="#E1E1E1" d="M15.4,28.1"/>
<path fill="#E1E1E1" d="M43.5,56.2"/>
<path fill="#E1E1E1" d="M43.5,56.2"/>
<path fill="#E1E1E1" d="M71.6,28.1"/>
<path fill="#7F939A" d="M85,42H6.3c-0.9,0-1.7-0.8-1.7-1.9V12.9l77.1,0.4l2.9,2.8L85,42z"/>
<path fill="#1D1D1B" d="M72.3,23.6h-1.2c-1.1,0-1.9-0.9-1.9-1.9v-1.2c0-1.1,0.9-1.9,1.9-1.9h1.2c1.1,0,1.9,0.9,1.9,1.9v1.2  C74.2,22.7,73.4,23.6,72.3,23.6 M71.1,20.3c-0.1,0-0.2,0.1-0.2,0.2v1.2c0,0.1,0.1,0.2,0.2,0.2h1.2c0.1,0,0.2-0.1,0.2-0.2v-1.2  c0-0.1-0.1-0.2-0.2-0.2H71.1z"/>
<path fill="#1D1D1B" d="M66.6,23.6h-1.2c-1.1,0-1.9-0.9-1.9-1.9v-1.2c0-1.1,0.9-1.9,1.9-1.9h1.2c1.1,0,1.9,0.9,1.9,1.9v1.2  C68.5,22.7,67.7,23.6,66.6,23.6 M65.4,20.3c-0.1,0-0.2,0.1-0.2,0.2v1.2c0,0.1,0.1,0.2,0.2,0.2h1.2c0.1,0,0.2-0.1,0.2-0.2v-1.2  c0-0.1-0.1-0.2-0.2-0.2H65.4z"/>
<path fill="#1D1D1B" d="M60.9,23.6h-1.2c-1.1,0-1.9-0.9-1.9-1.9v-1.2c0-1.1,0.9-1.9,1.9-1.9h1.2c1.1,0,1.9,0.9,1.9,1.9v1.2  C62.8,22.7,62,23.6,60.9,23.6 M59.7,20.3c-0.1,0-0.2,0.1-0.2,0.2v1.2c0,0.1,0.1,0.2,0.2,0.2h1.2c0.1,0,0.2-0.1,0.2-0.2v-1.2  c0-0.1-0.1-0.2-0.2-0.2H59.7z"/>
<path fill="#1D1D1B" d="M55.2,23.6H54c-1.1,0-1.9-0.9-1.9-1.9v-1.2c0-1.1,0.9-1.9,1.9-1.9h1.2c1.1,0,1.9,0.9,1.9,1.9v1.2  C57.1,22.7,56.3,23.6,55.2,23.6 M54,20.3c-0.1,0-0.2,0.1-0.2,0.2v1.2c0,0.1,0.1,0.2,0.2,0.2h1.2c0.1,0,0.2-0.1,0.2-0.2v-1.2  c0-0.1-0.1-0.2-0.2-0.2H54z"/>
<path fill="#1D1D1B" d="M49.5,23.6h-1.2c-1.1,0-1.9-0.9-1.9-1.9v-1.2c0-1.1,0.9-1.9,1.9-1.9h1.2c1.1,0,1.9,0.9,1.9,1.9v1.2  C51.4,22.7,50.6,23.6,49.5,23.6 M48.3,20.3c-0.1,0-0.2,0.1-0.2,0.2v1.2c0,0.1,0.1,0.2,0.2,0.2h1.2c0.1,0,0.2-0.1,0.2-0.2v-1.2  c0-0.1-0.1-0.2-0.2-0.2H48.3z"/>
<path fill="#1D1D1B" d="M43.8,23.6h-1.2c-1.1,0-1.9-0.9-1.9-1.9v-1.2c0-1.1,0.9-1.9,1.9-1.9h1.2c1.1,0,1.9,0.9,1.9,1.9v1.2  C45.7,22.7,44.9,23.6,43.8,23.6 M42.6,20.3c-0.1,0-0.2,0.1-0.2,0.2v1.2c0,0.1,0.1,0.2,0.2,0.2h1.2c0.1,0,0.2-0.1,0.2-0.2v-1.2  c0-0.1-0.1-0.2-0.2-0.2H42.6z"/>
<path fill="#1D1D1B" d="M38.1,23.6h-1.2c-1.1,0-1.9-0.9-1.9-1.9v-1.2c0-1.1,0.9-1.9,1.9-1.9h1.2c1.1,0,1.9,0.9,1.9,1.9v1.2  C40,22.7,39.2,23.6,38.1,23.6 M36.9,20.3c-0.1,0-0.2,0.1-0.2,0.2v1.2c0,0.1,0.1,0.2,0.2,0.2h1.2c0.1,0,0.2-0.1,0.2-0.2v-1.2  c0-0.1-0.1-0.2-0.2-0.2H36.9z"/>
<path fill="#1D1D1B" d="M32.4,23.6h-1.2c-1.1,0-1.9-0.9-1.9-1.9v-1.2c0-1.1,0.9-1.9,1.9-1.9h1.2c1.1,0,1.9,0.9,1.9,1.9v1.2  C34.3,22.7,33.5,23.6,32.4,23.6 M31.2,20.3c-0.1,0-0.2,0.1-0.2,0.2v1.2c0,0.1,0.1,0.2,0.2,0.2h1.2c0.1,0,0.2-0.1,0.2-0.2v-1.2  c0-0.1-0.1-0.2-0.2-0.2H31.2z"/>
<path fill="#1D1D1B" d="M26.7,23.6h-1.2c-1.1,0-1.9-0.9-1.9-1.9v-1.2c0-1.1,0.9-1.9,1.9-1.9h1.2c1.1,0,1.9,0.9,1.9,1.9v1.2  C28.6,22.7,27.8,23.6,26.7,23.6 M25.5,20.3c-0.1,0-0.2,0.1-0.2,0.2v1.2c0,0.1,0.1,0.2,0.2,0.2h1.2c0.1,0,0.2-0.1,0.2-0.2v-1.2  c0-0.1-0.1-0.2-0.2-0.2H25.5z"/>
<path fill="#1D1D1B" d="M21,23.6h-1.2c-1.1,0-1.9-0.9-1.9-1.9v-1.2c0-1.1,0.9-1.9,1.9-1.9H21c1.1,0,1.9,0.9,1.9,1.9v1.2  C22.9,22.7,22.1,23.6,21,23.6 M19.8,20.3c-0.1,0-0.2,0.1-0.2,0.2v1.2c0,0.1,0.1,0.2,0.2,0.2H21c0.1,0,0.2-0.1,0.2-0.2v-1.2  c0-0.1-0.1-0.2-0.2-0.2H19.8z"/>
<path fill="#1D1D1B" d="M15.3,23.6h-1.2c-1.1,0-1.9-0.9-1.9-1.9v-1.2c0-1.1,0.9-1.9,1.9-1.9h1.2c1.1,0,1.9,0.9,1.9,1.9v1.2  C17.2,22.7,16.4,23.6,15.3,23.6 M14.1,20.3c-0.1,0-0.2,0.1-0.2,0.2v1.2c0,0.1,0.1,0.2,0.2,0.2h1.2c0.1,0,0.2-0.1,0.2-0.2v-1.2  c0-0.1-0.1-0.2-0.2-0.2H14.1z"/>
<path fill="#1D1D1B" d="M9.6,23.6H8.4c-1.1,0-1.9-0.9-1.9-1.9v-1.2c0-1.1,0.9-1.9,1.9-1.9h1.2c1.1,0,1.9,0.9,1.9,1.9v1.2  C11.5,22.7,10.7,23.6,9.6,23.6 M8.4,20.3c-0.1,0-0.2,0.1-0.2,0.2v1.2c0,0.1,0.1,0.2,0.2,0.2h1.2c0.1,0,0.2-0.1,0.2-0.2v-1.2  c0-0.1-0.1-0.2-0.2-0.2H8.4z"/>
<path fill="#1D1D1B" d="M78,23.6h-1.2c-1.1,0-1.9-0.9-1.9-1.9v-1.2c0-1.1,0.9-1.9,1.9-1.9H78c1.1,0,1.9,0.9,1.9,1.9v1.2  C79.9,22.7,79.1,23.6,78,23.6 M76.8,20.3c-0.1,0-0.2,0.1-0.2,0.2v1.2c0,0.1,0.1,0.2,0.2,0.2H78c0.1,0,0.2-0.1,0.2-0.2v-1.2  c0-0.1-0.1-0.2-0.2-0.2H76.8z"/>
<path fill="#1D1D1B" d="M72.3,29.3h-1.2c-1.1,0-1.9-0.9-1.9-1.9v-1.2c0-1.1,0.9-1.9,1.9-1.9h1.2c1.1,0,1.9,0.9,1.9,1.9v1.2  C74.2,28.4,73.4,29.3,72.3,29.3 M71.1,25.9c-0.1,0-0.2,0.1-0.2,0.2v1.2c0,0.1,0.1,0.2,0.2,0.2h1.2c0.1,0,0.2-0.1,0.2-0.2v-1.2  c0-0.1-0.1-0.2-0.2-0.2H71.1z"/>
<path fill="#1D1D1B" d="M78,36.2h-1.2c-1.1,0-1.9-0.9-1.9-1.9v-8.1c0-1.1,0.9-1.9,1.9-1.9H78c1.1,0,1.9,0.9,1.9,1.9v8.1  C79.9,35.3,79,36.2,78,36.2 M76.7,25.9c-0.1,0-0.2,0.1-0.2,0.2v8.1c0,0.1,0.1,0.2,0.2,0.2H78c0.1,0,0.2-0.1,0.2-0.2v-8.1  c0-0.1-0.1-0.2-0.2-0.2H76.7z"/>
<path fill="#1D1D1B" d="M66.6,29.3h-1.2c-1.1,0-1.9-0.9-1.9-1.9v-1.2c0-1.1,0.9-1.9,1.9-1.9h1.2c1.1,0,1.9,0.9,1.9,1.9v1.2  C68.5,28.4,67.7,29.3,66.6,29.3 M65.4,25.9c-0.1,0-0.2,0.1-0.2,0.2v1.2c0,0.1,0.1,0.2,0.2,0.2h1.2c0.1,0,0.2-0.1,0.2-0.2v-1.2  c0-0.1-0.1-0.2-0.2-0.2H65.4z"/>
<path fill="#1D1D1B" d="M60.9,29.3h-1.2c-1.1,0-1.9-0.9-1.9-1.9v-1.2c0-1.1,0.9-1.9,1.9-1.9h1.2c1.1,0,1.9,0.9,1.9,1.9v1.2  C62.8,28.4,62,29.3,60.9,29.3 M59.7,25.9c-0.1,0-0.2,0.1-0.2,0.2v1.2c0,0.1,0.1,0.2,0.2,0.2h1.2c0.1,0,0.2-0.1,0.2-0.2v-1.2  c0-0.1-0.1-0.2-0.2-0.2H59.7z"/>
<path fill="#1D1D1B" d="M55.2,29.3H54c-1.1,0-1.9-0.9-1.9-1.9v-1.2c0-1.1,0.9-1.9,1.9-1.9h1.2c1.1,0,1.9,0.9,1.9,1.9v1.2  C57.1,28.4,56.3,29.3,55.2,29.3 M54,25.9c-0.1,0-0.2,0.1-0.2,0.2v1.2c0,0.1,0.1,0.2,0.2,0.2h1.2c0.1,0,0.2-0.1,0.2-0.2v-1.2  c0-0.1-0.1-0.2-0.2-0.2H54z"/>
<path fill="#1D1D1B" d="M49.5,29.3h-1.2c-1.1,0-1.9-0.9-1.9-1.9v-1.2c0-1.1,0.9-1.9,1.9-1.9h1.2c1.1,0,1.9,0.9,1.9,1.9v1.2  C51.4,28.4,50.6,29.3,49.5,29.3 M48.3,25.9c-0.1,0-0.2,0.1-0.2,0.2v1.2c0,0.1,0.1,0.2,0.2,0.2h1.2c0.1,0,0.2-0.1,0.2-0.2v-1.2  c0-0.1-0.1-0.2-0.2-0.2H48.3z"/>
<path fill="#1D1D1B" d="M43.8,29.3h-1.2c-1.1,0-1.9-0.9-1.9-1.9v-1.2c0-1.1,0.9-1.9,1.9-1.9h1.2c1.1,0,1.9,0.9,1.9,1.9v1.2  C45.7,28.4,44.9,29.3,43.8,29.3 M42.6,25.9c-0.1,0-0.2,0.1-0.2,0.2v1.2c0,0.1,0.1,0.2,0.2,0.2h1.2c0.1,0,0.2-0.1,0.2-0.2v-1.2  c0-0.1-0.1-0.2-0.2-0.2H42.6z"/>
<path fill="#1D1D1B" d="M38.1,29.3h-1.2c-1.1,0-1.9-0.9-1.9-1.9v-1.2c0-1.1,0.9-1.9,1.9-1.9h1.2c1.1,0,1.9,0.9,1.9,1.9v1.2  C40,28.4,39.2,29.3,38.1,29.3 M36.9,25.9c-0.1,0-0.2,0.1-0.2,0.2v1.2c0,0.1,0.1,0.2,0.2,0.2h1.2c0.1,0,0.2-0.1,0.2-0.2v-1.2  c0-0.1-0.1-0.2-0.2-0.2H36.9z"/>
<path fill="#1D1D1B" d="M32.4,29.3h-1.2c-1.1,0-1.9-0.9-1.9-1.9v-1.2c0-1.1,0.9-1.9,1.9-1.9h1.2c1.1,0,1.9,0.9,1.9,1.9v1.2  C34.3,28.4,33.5,29.3,32.4,29.3 M31.2,25.9c-0.1,0-0.2,0.1-0.2,0.2v1.2c0,0.1,0.1,0.2,0.2,0.2h1.2c0.1,0,0.2-0.1,0.2-0.2v-1.2  c0-0.1-0.1-0.2-0.2-0.2H31.2z"/>
<path fill="#1D1D1B" d="M26.7,29.3h-1.2c-1.1,0-1.9-0.9-1.9-1.9v-1.2c0-1.1,0.9-1.9,1.9-1.9h1.2c1.1,0,1.9,0.9,1.9,1.9v1.2  C28.6,28.4,27.8,29.3,26.7,29.3 M25.5,25.9c-0.1,0-0.2,0.1-0.2,0.2v1.2c0,0.1,0.1,0.2,0.2,0.2h1.2c0.1,0,0.2-0.1,0.2-0.2v-1.2  c0-0.1-0.1-0.2-0.2-0.2H25.5z"/>
<path fill="#1D1D1B" d="M21,29.3h-1.2c-1.1,0-1.9-0.9-1.9-1.9v-1.2c0-1.1,0.9-1.9,1.9-1.9H21c1.1,0,1.9,0.9,1.9,1.9v1.2  C22.9,28.4,22.1,29.3,21,29.3 M19.8,25.9c-0.1,0-0.2,0.1-0.2,0.2v1.2c0,0.1,0.1,0.2,0.2,0.2H21c0.1,0,0.2-0.1,0.2-0.2v-1.2  c0-0.1-0.1-0.2-0.2-0.2H19.8z"/>
<path fill="#1D1D1B" d="M15.3,29.3h-1.2c-1.1,0-1.9-0.9-1.9-1.9v-1.2c0-1.1,0.9-1.9,1.9-1.9h1.2c1.1,0,1.9,0.9,1.9,1.9v1.2  C17.2,28.4,16.4,29.3,15.3,29.3 M14.1,25.9c-0.1,0-0.2,0.1-0.2,0.2v1.2c0,0.1,0.1,0.2,0.2,0.2h1.2c0.1,0,0.2-0.1,0.2-0.2v-1.2  c0-0.1-0.1-0.2-0.2-0.2H14.1z"/>
<path fill="#1D1D1B" d="M9.6,29.3H8.4c-1.1,0-1.9-0.9-1.9-1.9v-1.2c0-1.1,0.9-1.9,1.9-1.9h1.2c1.1,0,1.9,0.9,1.9,1.9v1.2  C11.5,28.4,10.7,29.3,9.6,29.3 M8.4,25.9c-0.1,0-0.2,0.1-0.2,0.2v1.2c0,0.1,0.1,0.2,0.2,0.2h1.2c0.1,0,0.2-0.1,0.2-0.2v-1.2  c0-0.1-0.1-0.2-0.2-0.2H8.4z"/>
<path fill="#1D1D1B" d="M72.3,35h-1.2c-1.1,0-1.9-0.9-1.9-1.9v-1.2c0-1.1,0.9-1.9,1.9-1.9h1.2c1.1,0,1.9,0.9,1.9,1.9v1.2  C74.2,34.1,73.4,35,72.3,35 M71.1,31.7c-0.1,0-0.2,0.1-0.2,0.2v1.2c0,0.1,0.1,0.2,0.2,0.2h1.2c0.1,0,0.2-0.1,0.2-0.2v-1.2  c0-0.1-0.1-0.2-0.2-0.2H71.1z"/>
<path fill="#1D1D1B" d="M66.6,35h-1.2c-1.1,0-1.9-0.9-1.9-1.9v-1.2c0-1.1,0.9-1.9,1.9-1.9h1.2c1.1,0,1.9,0.9,1.9,1.9v1.2  C68.5,34.1,67.7,35,66.6,35 M65.4,31.7c-0.1,0-0.2,0.1-0.2,0.2v1.2c0,0.1,0.1,0.2,0.2,0.2h1.2c0.1,0,0.2-0.1,0.2-0.2v-1.2  c0-0.1-0.1-0.2-0.2-0.2H65.4z"/>
<path fill="#1D1D1B" d="M60.9,35h-1.2c-1.1,0-1.9-0.9-1.9-1.9v-1.2c0-1.1,0.9-1.9,1.9-1.9h1.2c1.1,0,1.9,0.9,1.9,1.9v1.2  C62.8,34.1,62,35,60.9,35 M59.7,31.7c-0.1,0-0.2,0.1-0.2,0.2v1.2c0,0.1,0.1,0.2,0.2,0.2h1.2c0.1,0,0.2-0.1,0.2-0.2v-1.2  c0-0.1-0.1-0.2-0.2-0.2H59.7z"/>
<path fill="#1D1D1B" d="M55.2,35H54c-1.1,0-1.9-0.9-1.9-1.9v-1.2c0-1.1,0.9-1.9,1.9-1.9h1.2c1.1,0,1.9,0.9,1.9,1.9v1.2  C57.1,34.1,56.3,35,55.2,35 M54,31.7c-0.1,0-0.2,0.1-0.2,0.2v1.2c0,0.1,0.1,0.2,0.2,0.2h1.2c0.1,0,0.2-0.1,0.2-0.2v-1.2  c0-0.1-0.1-0.2-0.2-0.2H54z"/>
<path fill="#1D1D1B" d="M49.5,35h-1.2c-1.1,0-1.9-0.9-1.9-1.9v-1.2c0-1.1,0.9-1.9,1.9-1.9h1.2c1.1,0,1.9,0.9,1.9,1.9v1.2  C51.4,34.1,50.6,35,49.5,35 M48.3,31.7c-0.1,0-0.2,0.1-0.2,0.2v1.2c0,0.1,0.1,0.2,0.2,0.2h1.2c0.1,0,0.2-0.1,0.2-0.2v-1.2  c0-0.1-0.1-0.2-0.2-0.2H48.3z"/>
<path fill="#1D1D1B" d="M43.8,35h-1.2c-1.1,0-1.9-0.9-1.9-1.9v-1.2c0-1.1,0.9-1.9,1.9-1.9h1.2c1.1,0,1.9,0.9,1.9,1.9v1.2  C45.7,34.1,44.9,35,43.8,35 M42.6,31.7c-0.1,0-0.2,0.1-0.2,0.2v1.2c0,0.1,0.1,0.2,0.2,0.2h1.2c0.1,0,0.2-0.1,0.2-0.2v-1.2  c0-0.1-0.1-0.2-0.2-0.2H42.6z"/>
<path fill="#1D1D1B" d="M38.1,35h-1.2c-1.1,0-1.9-0.9-1.9-1.9v-1.2c0-1.1,0.9-1.9,1.9-1.9h1.2c1.1,0,1.9,0.9,1.9,1.9v1.2  C40,34.1,39.2,35,38.1,35 M36.9,31.7c-0.1,0-0.2,0.1-0.2,0.2v1.2c0,0.1,0.1,0.2,0.2,0.2h1.2c0.1,0,0.2-0.1,0.2-0.2v-1.2  c0-0.1-0.1-0.2-0.2-0.2H36.9z"/>
<path fill="#1D1D1B" d="M32.4,35h-1.2c-1.1,0-1.9-0.9-1.9-1.9v-1.2c0-1.1,0.9-1.9,1.9-1.9h1.2c1.1,0,1.9,0.9,1.9,1.9v1.2  C34.3,34.1,33.5,35,32.4,35 M31.2,31.7c-0.1,0-0.2,0.1-0.2,0.2v1.2c0,0.1,0.1,0.2,0.2,0.2h1.2c0.1,0,0.2-0.1,0.2-0.2v-1.2  c0-0.1-0.1-0.2-0.2-0.2H31.2z"/>
<path fill="#1D1D1B" d="M26.7,35h-1.2c-1.1,0-1.9-0.9-1.9-1.9v-1.2c0-1.1,0.9-1.9,1.9-1.9h1.2c1.1,0,1.9,0.9,1.9,1.9v1.2  C28.6,34.1,27.8,35,26.7,35 M25.5,31.7c-0.1,0-0.2,0.1-0.2,0.2v1.2c0,0.1,0.1,0.2,0.2,0.2h1.2c0.1,0,0.2-0.1,0.2-0.2v-1.2  c0-0.1-0.1-0.2-0.2-0.2H25.5z"/>
<path fill="#1D1D1B" d="M21,35h-1.2c-1.1,0-1.9-0.9-1.9-1.9v-1.2c0-1.1,0.9-1.9,1.9-1.9H21c1.1,0,1.9,0.9,1.9,1.9v1.2  C22.9,34.1,22.1,35,21,35 M19.8,31.7c-0.1,0-0.2,0.1-0.2,0.2v1.2c0,0.1,0.1,0.2,0.2,0.2H21c0.1,0,0.2-0.1,0.2-0.2v-1.2  c0-0.1-0.1-0.2-0.2-0.2H19.8z"/>
<path fill="#1D1D1B" d="M15.3,35h-1.2c-1.1,0-1.9-0.9-1.9-1.9v-1.2c0-1.1,0.9-1.9,1.9-1.9h1.2c1.1,0,1.9,0.9,1.9,1.9v1.2  C17.2,34.1,16.4,35,15.3,35 M14.1,31.7c-0.1,0-0.2,0.1-0.2,0.2v1.2c0,0.1,0.1,0.2,0.2,0.2h1.2c0.1,0,0.2-0.1,0.2-0.2v-1.2  c0-0.1-0.1-0.2-0.2-0.2H14.1z"/>
<path fill="#1D1D1B" d="M9.6,35H8.4c-1.1,0-1.9-0.9-1.9-1.9v-1.2c0-1.1,0.9-1.9,1.9-1.9h1.2c1.1,0,1.9,0.9,1.9,1.9v1.2  C11.5,34.1,10.7,35,9.6,35 M8.4,31.7c-0.1,0-0.2,0.1-0.2,0.2v1.2c0,0.1,0.1,0.2,0.2,0.2h1.2c0.1,0,0.2-0.1,0.2-0.2v-1.2  c0-0.1-0.1-0.2-0.2-0.2H8.4z"/>
<path fill="#1D1D1B" d="M72.3,40.8h-1.2c-1.1,0-1.9-0.9-1.9-1.9v-1.2c0-1.1,0.9-1.9,1.9-1.9h1.2c1.1,0,1.9,0.9,1.9,1.9v1.2  C74.2,39.9,73.4,40.8,72.3,40.8 M71.1,37.4c-0.1,0-0.2,0.1-0.2,0.2v1.2c0,0.1,0.1,0.2,0.2,0.2h1.2c0.1,0,0.2-0.1,0.2-0.2v-1.2  c0-0.1-0.1-0.2-0.2-0.2H71.1z"/>
<path fill="#1D1D1B" d="M66.6,40.8h-1.2c-1.1,0-1.9-0.9-1.9-1.9v-1.2c0-1.1,0.9-1.9,1.9-1.9h1.2c1.1,0,1.9,0.9,1.9,1.9v1.2  C68.5,39.9,67.7,40.8,66.6,40.8 M65.4,37.4c-0.1,0-0.2,0.1-0.2,0.2v1.2c0,0.1,0.1,0.2,0.2,0.2h1.2c0.1,0,0.2-0.1,0.2-0.2v-1.2  c0-0.1-0.1-0.2-0.2-0.2H65.4z"/>
<path fill="#1D1D1B" d="M60.9,40.8h-1.2c-1.1,0-1.9-0.9-1.9-1.9v-1.2c0-1.1,0.9-1.9,1.9-1.9h1.2c1.1,0,1.9,0.9,1.9,1.9v1.2  C62.8,39.9,62,40.8,60.9,40.8 M59.7,37.4c-0.1,0-0.2,0.1-0.2,0.2v1.2c0,0.1,0.1,0.2,0.2,0.2h1.2c0.1,0,0.2-0.1,0.2-0.2v-1.2  c0-0.1-0.1-0.2-0.2-0.2H59.7z"/>
<path fill="#1D1D1B" d="M26.7,40.8h-1.2c-1.1,0-1.9-0.9-1.9-1.9v-1.2c0-1.1,0.9-1.9,1.9-1.9h1.2c1.1,0,1.9,0.9,1.9,1.9v1.2  C28.6,39.9,27.8,40.8,26.7,40.8 M25.5,37.4c-0.1,0-0.2,0.1-0.2,0.2v1.2c0,0.1,0.1,0.2,0.2,0.2h1.2c0.1,0,0.2-0.1,0.2-0.2v-1.2  c0-0.1-0.1-0.2-0.2-0.2H25.5z"/>
<path fill="#1D1D1B" d="M21,40.8h-1.2c-1.1,0-1.9-0.9-1.9-1.9v-1.2c0-1.1,0.9-1.9,1.9-1.9H21c1.1,0,1.9,0.9,1.9,1.9v1.2  C22.9,39.9,22.1,40.8,21,40.8 M19.8,37.4c-0.1,0-0.2,0.1-0.2,0.2v1.2c0,0.1,0.1,0.2,0.2,0.2H21c0.1,0,0.2-0.1,0.2-0.2v-1.2  c0-0.1-0.1-0.2-0.2-0.2H19.8z"/>
<path fill="#1D1D1B" d="M15.3,40.8h-1.2c-1.1,0-1.9-0.9-1.9-1.9v-1.2c0-1.1,0.9-1.9,1.9-1.9h1.2c1.1,0,1.9,0.9,1.9,1.9v1.2  C17.2,39.9,16.4,40.8,15.3,40.8 M14.1,37.4c-0.1,0-0.2,0.1-0.2,0.2v1.2c0,0.1,0.1,0.2,0.2,0.2h1.2c0.1,0,0.2-0.1,0.2-0.2v-1.2  c0-0.1-0.1-0.2-0.2-0.2H14.1z"/>
<path fill="#1D1D1B" d="M55.2,40.8h-24c-1.1,0-1.9-0.9-1.9-1.9v-1.2c0-1.1,0.9-1.9,1.9-1.9h24c1.1,0,1.9,0.9,1.9,1.9v1.2  C57.1,39.9,56.3,40.8,55.2,40.8 M31.2,37.4c-0.1,0-0.2,0.1-0.2,0.2v1.2c0,0.1,0.1,0.2,0.2,0.2h24c0.1,0,0.2-0.1,0.2-0.2v-1.2  c0-0.1-0.1-0.2-0.2-0.2H31.2z"/>
<path fill="#1D1D1B" d="M79.7,46.7H6.2C2.8,46.7,0,44,0,40.5V18.3c0-3.4,2.8-6.2,6.2-6.2h73.5c3.4,0,6.2,2.8,6.2,6.2v22.3  C85.9,44,83.1,46.7,79.7,46.7 M6.2,13.8c-2.4,0-4.4,2-4.4,4.4v22.3c0,2.4,2,4.4,4.4,4.4h73.5c2.4,0,4.4-2,4.4-4.4V18.3  c0-2.4-2-4.4-4.4-4.4H6.2z"/>
<path fill="#1D1D1B" d="M43.1,13.3L43.1,13.3c-0.5,0-0.8-0.4-0.8-0.9c0-1.1-0.1-3-0.4-4.3C41.5,7.2,40.2,7,39.4,7  c-0.4,0-0.8-0.3-0.9-0.8l0,0c-0.1-0.5,0.4-1,0.9-1c1.6,0,3.6,0.6,4.1,2.5c0.4,1.6,0.5,3.6,0.5,4.8C44,12.9,43.6,13.3,43.1,13.3"/>
<head/></svg>
