<svg xmlns="http://www.w3.org/2000/svg" xmlns:xlink="http://www.w3.org/1999/xlink" version="1.0" id="Layer_1" x="0px" y="0px" width="57px" height="72.2px" viewBox="0 0 57 72.2" enable-background="new 0 0 57 72.2" xml:space="preserve">
<path fill="#FFD108" d="M4.9,71.6l0.9-0.4l37.7-34.3c-0.2-0.2-0.3-0.5-0.5-0.7c0.1,0.2,0.3,0.5,0.5,0.7l0.3-0.3l5.9,0l4-4.3l2.5-9.5  l-1.6-7.5L49.1,3.6c-0.1,0-0.2,0-0.4,0.1c-0.8,0.3-0.8,0.9-0.8,1.6c0,3.2-0.6,6.3-1.8,9.2c-1.2,2.8-2.4,5.6-3.7,8.5  c-1.3,3-1.1,6.8-0.7,9.3c0.4,2.5,0.4,1.9,0.8,2.8c-0.1-0.3-0.2-0.4-0.4-0.3L4.5,68.5c-0.7,0.6-0.8,1.8-0.1,2.5L4.9,71.6z"/>
<path fill="#1D1D1B" d="M56,16.4c-1.9-5.8-4.9-10.8-7.7-15c-0.8-1.2-1.7-1.6-2.8-1.2c-1.5,0.5-1.5,2-1.5,2.6c0,3-0.6,6-1.7,8.8  c-0.8,2-1.7,4.1-2.6,6c-0.4,0.8-0.7,1.6-1.1,2.4c-1.4,3.2-1.6,6.5-0.7,10c0.1,0.3,0.1,0.5,0.2,0.8c0.1,0.3,0.1,0.5,0.2,0.8L1,65.2  c-1.2,1.1-1.3,2.9-0.2,4.1l1.8,2c0.5,0.6,1.2,0.9,2,1c0.1,0,0.1,0,0.2,0c0.7,0,1.4-0.3,1.9-0.7l38-34.1c0,0,0,0,0.1-0.1  c0.9,0.2,1.8,0.3,2.6,0.3c3.4,0,6.1-1.8,7.8-5.5c1.5-3.2,1.8-6.7,1.9-9.9C57.1,19.9,56.5,17.8,56,16.4 M5.1,69.8  c-0.1,0.1-0.3,0.2-0.5,0.2c-0.2,0-0.3-0.1-0.4-0.2l-1.8-2c-0.2-0.3-0.2-0.7,0-0.9L39.2,34c0.2,0.5,0.6,1,1.1,1.5  c0.5,0.5,1.2,0.9,1.7,1.2L5.1,69.8z M54.9,22.1L54.9,22.1c-0.1,3-0.4,6.2-1.7,9.1c-1.7,3.7-4.4,5-8.2,4l-0.2,0  c-0.5-0.1-1.1-0.3-1.7-0.5c-0.4-0.2-0.9-0.5-1.2-0.8c-0.4-0.4-0.7-1-0.9-1.5c-0.1-0.3-0.2-0.5-0.4-0.7c-0.1-0.4-0.2-0.9-0.4-1.4  c-0.1-0.3-0.1-0.6-0.2-0.9c-0.8-3-0.6-5.9,0.6-8.6c0.3-0.8,0.7-1.6,1-2.4c0.9-2,1.8-4,2.6-6.1c1.3-3.1,1.9-6.3,1.9-9.6  c0-0.1,0-0.5,0-0.6c0,0,0,0,0,0c0,0,0,0,0,0c0,0,0.1,0.1,0.3,0.4c2.7,4,5.6,8.9,7.4,14.5C54.7,19,55,20.6,54.9,22.1"/>
<path fill="#1D1D1B" d="M49.5,15.5c-0.4-0.4-0.9-0.5-1.4-0.3c-0.5,0.2-0.8,0.7-0.9,1.2c0,0.4,0,0.7-0.1,1.1c-0.2,2.2-0.4,4-1.2,5.6  c-0.2,0.5-0.3,0.4-0.5,0.4c-0.1,0-0.3-0.1-0.4-0.5c0-0.6-0.4-1.1-1-1.3c-0.6-0.2-1.2,0.1-1.5,0.6c-1.2,2-1.3,4.1-0.4,5.9  c0.4,0.7,0.6,1.4,0.7,1.9c0.1,0.8,0.5,1.5,1.1,1.9c0.4,0.3,0.9,0.4,1.4,0.4c0.3,0,0.6,0,0.8-0.1l2.3-0.8c1.2-0.2,2.1-1,3-2.4  C54,25.4,53,18.9,49.5,15.5 M49.8,28.2c-0.6,0.9-1.1,1.4-1.7,1.5l-0.1,0l-2.5,0.9c-0.2,0.1-0.3,0-0.4,0c-0.1,0-0.2-0.1-0.2-0.3  c-0.1-0.9-0.5-1.8-0.9-2.7c-0.4-0.8-0.5-1.7-0.3-2.6c0.3,0.3,0.8,0.6,1.3,0.7c0.7,0.1,1.9,0.1,2.8-1.6c0.9-1.9,1.2-4,1.3-5.7  C51,21.2,51.4,25.6,49.8,28.2"/>
<head/></svg>
